<?xml version="1.0" encoding="utf-8"?>
<!DOCTYPE svg PUBLIC "-//W3C//DTD SVG 1.1//EN" "http://www.w3.org/Graphics/SVG/1.1/DTD/svg11.dtd">
<svg version="1.1" id="Layer_1" xmlns="http://www.w3.org/2000/svg" xmlns:xlink="http://www.w3.org/1999/xlink" x="0px" y="0px"
	 viewBox="0 0 1040 1872" enable-background="new 0 0 1040 1872" xml:space="preserve">
<g>
	<path d="M843.2517,1319.8599c-2.1824-2.8098-0.5619-7.6152-2.4312-10.8905c-2.2435-3.9308-5.582-7.0536-7.5909-11.1554
		c-3.7116-7.5785-1.9122-15.8792-5.9446-24.0776c-2.7161-5.5222-5.8578-24.9954-10.7484-27.7993
		c-9.559-5.4806-19.74-4.4762-29.4207-9.9601c-9.4849-5.373-18.6567-11.5906-24.3619-21.1537
		c-5.1548-8.6403-14.3808-8.0554-19.8699-15.4042c-5.2963-7.0906-11.4313-19.879-15.0224-28.1591
		c-2.3489-5.4159-1.67-8.7278-5.8522-13.3749c-2.0682-2.2981-11.3459-5.8618-11.724-8.8049
		c-0.5466-4.2551,4.9091-4.9094-0.1993-8.9242c-2.3428-1.8409-3.9744-4.842-0.6802-6.9626
		c6.9346-4.4647-3.4163-6.6316-8.0664-5.5134c-10.5012,2.5248-9.1313-10.2614-8.8286-15.5721
		c0.5574-9.7799-13.8101-14.5736-16.1835-24.4552c-2.7488-11.4446-10.8789-21.7052-16.0801-32.1503
		c-1.8151-3.6451-17.1949-28.0475-15.2091-30.7156c4.3353-5.825-3.663-12.3395-6.282-18.8093
		c-6.1152-15.1066-5.6586-20.9803,0.6531-35.4338c1.1244-2.5746-9.1554-24.4766-10.0136-29.6089
		c-1.2648-7.5638-1.5046-25.0037-5.2808-31.0919c-4.0444-6.5206-11.6871-12.2161-15.8997-19.5771
		c-2.5449-4.4467-4.7485-9.0794-7.3895-13.4726c-2.569-4.2734-10.3317-9.688-11.1889-14.3162
		c-2.108-11.3815-3.8102-17.0062-9.7504-26.9099c-5.743-9.5752-4.6138-21.0403-5.9071-31.6702
		c-0.8296-6.8187,0.526-29.5055-6.6712-32.714c-3.7999-1.694-7.637-1.3384-11.6011-0.6315
		c-7.2381,1.2906-14.1863-1.4975-21.4791-1.4208c-11.8498,0.1246-21.2881,1.8017-32.5226,3.9769
		c-3.8924,0.7537-12.3189,5.3154-4.4915,10.7193c3.3264,2.2964,22.9722,12.6531,22.3242,15.9143
		c-1.2542,6.3118-11.2411,17.8187-14.8379,23.8431c-3.8597,6.4647,3.4229,6.1819,5.4068,10.5694
		c4.1993,9.2863,9.543,18.4958,13.251,27.9295c3.24,8.2428,10.553,10.3856,14.6312,17.9679
		c2.0956,3.8961,4.3904,7.9033,6.0005,12.028c2.3631,6.0536,8.4162,8.79,10.4568,14.5697
		c2.604,7.3757,1.8583,20.6462-0.6265,27.9583c-3.5178,10.3513-0.4989,21.1482-1.3656,31.741
		c-0.879,10.7442-2.8591,17.7505,3.2333,27.6802c4.5649,7.4398,6.0062,16.3286,7.6165,24.7556
		c3.6877,19.2994,7.1203,36.5383,13.9255,54.972c2.057,5.5719,5.3438,15.1738,6.1011,20.7751
		c1.4935,11.0461-15.9924,10.618-21.0688,16.0819c-4.3618,4.6947-3.2693,11.996-8.8652,15.9083
		c-3.5418,2.4762-12.9446,5.9604-14.8252-0.1412c-2.531-8.2122,1.3431-9.2693-6.8127-8.4066
		c-1.0374,0.1097-8.1422-13.3953-8.5991-14.287c-4.3024-8.3961,0.116-17.2877-3.0133-24.6096
		c-3.5776-8.3711-9.1779-15.381-10.7558-24.6218c-1.7455-10.2223,2.6321-13.9911-5.4872-21.6094
		c-6.9822-6.5514-2.69-11.0924-2.0297-20.353c0.6102-8.5595,1.5583-19.0107,0.989-27.5065
		c-0.5733-8.5544-6.4679-16.762-2.9317-25.423c-11.0493-10.7582-0.605-34.8509-23.0919-35.4917
		c-8.7184-0.2484-46.8116-14.2309-41.0256-27.8182c8.9236-20.9553,31.7922-0.4708,40.6043-13.822
		c5.5006-8.3339-1.1732-14.5815-2.6987-22.5773c-1.894-9.9276-1.5649-19.6787-4.1642-29.7025
		c-2.0759-8.0056-2.0926-17.444-6.2857-24.7354c-4.2966-7.4713-10.3654-10.978-16.0296-16.6754
		c-4.7666-4.7947,2.5898-13.6307,3.8759-18.4464c3.3772-12.6458-3.4493-8.2654-10.6869-6.9129
		c-7.6945,1.4379-16.6406-8.246-21.6089-13.1507c-2.701-2.6664-15.1684-12.79-15.8531-15.7607
		c-1.1013-4.778,12.7655-2.8223,3.9735-7.5963c-12.4114-6.7397,4.0834-21.4962,7.3748-19.8303
		c3.0522,1.545-2.4429,12.6287,9.2963,7.9118c14.9553-6.0092-10.1076-20.6392-12.1525-24.2433
		c-6.4254-11.3249-1.4284-14.8877,9.8099-15.4655c8.3394-0.4287,2.4023-11.5276,0.3387-14.7496
		c-4.5358-7.0814,1.0906-6.2481,0.8579-12.4203c-0.066-1.7514-2.9925,1.012-3.1048,1.0148
		c-1.0767-0.9736-1.2439-2.1425-0.5017-3.5068c2.7015-2.928,12.0394-3.7901,15.7004-4.9175
		c9.5901-2.9534,17.2495-6.1316,15.4184-18.0175c-3.2711-21.2316-35.1909-1.5513-41.8488-12.2382
		c-6.2726-10.0692-11.1628-5.6147-20.2202-10.5678c-6.6467-3.6348-14.1275-8.1873-20.1492-0.9181
		c-7.2099,8.7034-13.7859,17.9962-21.0653,26.725c-6.8949,8.2677-8.9478,19.0706-13.3576,28.6262
		c-4.0957,8.8754-2.9879,25.1922-3.4957,34.9224c-0.2157,4.1329,0.6425,11.1786-1.4602,15.0748
		c-2.0475,3.7938-6.8373,3.7248-5.5878,9.0967c4.4033,18.9317-14.656,45.8922-22.9613,61.8476
		c-5.7894,11.122-5.1879,15.7397-6.6071,27.1946c-1.0605,8.5592,3.8216,10.7031,2.2571,19.0983
		c-1.3978,7.5008,6.2869,7.5833,8.3112,14.051c1.3508,4.316,2.6986,9.1115,0.4191,13.4323
		c0.1748-0.3314-5.3594,5.0237-4.5857,6.8103c0.7261,1.6772,9.4243-0.4207,11.9913,4.3779
		c3.9501,7.3839,1.1939,18.7843,1.9464,27.0187c0.7852,8.593,7.6354,10.1684,9.9926,17.8688
		c1.3842,4.5219,4.1155,8.4481,7.1035,12.0425c5.1869,6.239,5.6037-1.1361,10.363-0.0212c3.358,0.7867,2.0338,10.769,9.9646,11.3908
		c7.5155,0.5893,23.1978,1.4489,29.685,4.9399c2.5725,1.3843-3.1593,5.0092,1.8764,6.8403
		c4.2457,1.5444,5.2887-5.5859,7.1106-7.4904c6.1716-6.4518,12.3042,15.6885,13.1147,16.5253
		c1.1353,1.1721,4.1458-5.1497,4.9415-0.3446c1.2736,7.6902-3.538,16.7363-8.0863,22.5056
		c-4.6892,5.9481-16.2227,0.0726-22.6746-0.3082c-7.7407-0.457-9.7786,3.024-8.2754,10.3098
		c0.9926,4.8108-2.466,15.5862,1.3143,18.9752c4.4255,3.9673,8.4132,8.6707,12.9068,12.6717
		c5.0715,4.5155,18.4904,3.218,22.1206,9.0925c-0.639-1.0341-7.4146,11.0068-7.6901,11.3746
		c-4.5974,6.1378-10.3384,5.4111-16.7828,2.5255c-7.167-3.2087-13.0096-3.2539-20.395-2.4058
		c-2.8484,0.327-9.637-5.0743-13.0859-5.9304c-6.615-1.6421-9.2501-7.4533-8.4018-13.8635
		c0.6589-4.9802-8.5963-6.4373-10.9615-12.206c-2.8584-6.9717-3.1261-15.9796-8.4734-21.6942
		c-6.7649-7.2293,10.922-14.1291-2.8464-20.5698c-10.4023-4.866-22.4164-19.7787-29.1153-29.7038
		c-2.8974-4.2928-14.9534-14.1954-15.4301-18.59c-0.9743-8.9801-8.3027-9.4438-13.2245-15.2128
		c-4.6701-5.4741-3.033-14.8239-6.3736-21.288c-3.5037-6.7797-12.7563-9.4863-14.7037-16.609
		c-1.5987-5.8474-2.8903-12.1796-10.8418-10.0627c-3.8942,1.0367-2.0935,5.9485-6.7377,5.6871
		c-4.8609-0.2736-8.1135,0.0231-11.0458,4.5435c-3.4409,5.3045,7.5004,19.2742,9.3199,24.5209
		c3.2613,9.4045-3.1896,6.162-8.4405,9.941c-4.2646,3.0693-2.7879,20.2405-1.9872,24.8258
		c1.7623,10.0926-2.5259,10.3932-6.7149,16.5627c-0.6366,2.0735,0.1567,3.6593,2.3797,4.7571
		c-1.1376-0.8829-5.4012,8.9752-5.5592,9.5079c-0.8916,3.0071-6.0197,16.6716-3.5139,19.2919
		c5.575,5.8298,3.5313-2.7897,4.5867,7.4973c1.0506,10.2401,8.2592,1.1337,12.8714,2.5577
		c13.9274,4.2999-13.4643,32.725-14.1866,36.4146c-1.3929,7.1149-2.1541,10.1168-8.9362,14.1747
		c-5.6935,3.4064-8.6957,7.0928-6.9933,14.1399c1.6771,6.9427-0.682,18.968,2.7844,24.7161
		c1.7472,2.4421,1.4642,4.656-0.8489,6.6414c-5.5536,4.8716,0.4048,8.951,3.0287,13.0024
		c5.3854,8.3152-4.4681,42.5322,10.869,38.8762c-2.6905,8.6039-6.0885,8.4255-6.1088,18.795
		c-0.0184,9.3883-4.7101,24.1459,0.0322,32.8015c3.5786,6.5317,10.0261,7.6072,8.9646,16.6121
		c-0.5325,4.5175-10.3485,11.6609-9.4325,14.0961c1.0633,2.8268,9.2261-6.2043,11.1288-4.5894
		c2.7088,2.2992-9.108,16.4862-10.5439,18.8499c-4.9987,8.2281-6.4002,16.1318-7.8053,25.4988
		c-1.5208,10.1383-16.2896,40.0867-7.8147,47.333c5.5378,4.7352-5.6584,8.8944-8.3007,12.1682
		c-4.5703,5.6627-0.3376,18.8683-6.344,21.9102c-7.1165,3.6036-4.2407,10.7596-1.4995,16.2703
		c4.0908,8.2236,7.8741,20.6409,12.895,27.7385c3.9067,5.5227,14.9758,2.188,20.5648,5.6956
		c6.8838,4.3204,15.8183-6.9364,24.4035-4.972c8.1749,1.8705,16.6337,2.6272,24.5015,5.4891
		c7.9383,2.8876,24.3284,1.4747,30.2936,6.3094c6.4109,5.1959,6.8169,21.1239,6.9761,28.561
		c0.2802,13.0901-4.5484,23.7797-7.4079,36.2174c-1.9349,8.416,0.3046,17.8617-2.6264,25.9678
		c-1.4587,4.0341-6.0272,5.4868-7.1819,9.2659c-1.2081,3.9541,3.2446,5.4956-1.8977,8.064
		c-8.9137,4.4525-0.7862,8.9753-2.0446,16.0499c-0.9756,5.4854-11.509,14.1129-8.828,19.5985
		c2.6982,5.5203,1.4516,13.2867,7.0796,17.2041c8.0211,5.5831,4.9844,10.4594,2.3035,20.5034
		c-1.101,4.1248-7.5184,11.204-0.4098,13.3474c2.431,0.7334-6.2613,13.2545-6.4183,15.0586
		c-0.7969,9.1597,9.3212,18.0255,3.0322,26.6472c-1.4158,1.9414,6.6655,14.5353,5.8823,20.3076
		c-1.5162,11.1731,0.573,22.324,3.1169,33.174c4.043,17.2441,4.1494,1.2544,13.7915,5.24
		c4.7787,1.9753,14.8932,5.7589,18.4645,9.6229c5.1225,5.5424-2.5129,14.1061,1.8921,18.4409
		c6.6347,6.53,10.1331,30.1931-1.511,33.8235c-9.6201,3.0005-1.6602,9.7708,0.9884,13.9589
		c1.3207,2.0884,9.7247,20.7639,8.8545,21.8209c-1.6309,1.9816-16.5027-0.0055-5.8738,7.7344
		c7.2938,5.3114,14.1772-14.7948,20.1727-12.0374c9.61,4.4196-12.5635,18.1516-2.3632,23.3569
		c7.069,3.6073,25.6762,4.3401,26.8082,14.8438c0.3767,3.4982,2.3897,5.8593,6.0847,5.9092
		c7.5171,0.1014,9.5548,5.6826,16.2897,7.5524c14.009,3.8892,27.9973-0.5691,42.0975,1.4242
		c13.0247,1.8413,26.2351-1.0828,39.8485,1.0457c15.7895,2.4686,28.8075,4.3572,44.6563,2.2889
		c24.9344-3.2538,47.243-9.2638,69.8687-18.8027c15.8553-6.6846,23.5159-51.3381,4.2832-57.6855
		c-4.475-1.4769-6.4645,3.2467-9.6344,2.4833c-4.2226-1.0171-10.7738-8.5852-13.055-12.0278
		c-6.5177-9.8348-21.1592-7.1808-30.539-3.5505c-8.2113,3.178-16.9125,9.2109-22.6249,15.9285
		c-7.9523,9.3516-12.6566-11.0778-11.5963-10.8727c9.9713,1.9279-6.773-24.5966-11.3576-25.0348
		c-8.7674-0.8376-8.8126-10.1345-15.3943-13.0481c-1.4352-0.6354-5.5822,1.7224-5.9565-0.6067
		c-0.7263-4.5194-0.7978-9.4296-1.1989-13.9973c-0.8437-9.6069,0.4197-17.2373,3.8354-26.0933
		c3.5374-9.1716,1.3653-21.1749,0.4601-30.6661c-0.9445-9.9028-1.5051-19.5714,2.0248-29.0847
		c4.2699-11.5076,2.657-18.2393,1.6074-30.2283c-0.63-7.1956,1.2829-18.9363,3.47-25.848
		c0.9552-3.0189,3.3701-18.0111,4.7773-19.0947c5.4327-4.1818,6.1885-15.2582,6.0798-21.418
		c-0.1801-10.2032,4.3113-18.4124,5.2114-28.45c0.9892-11.0314,1.2287-4.8531,7.7455-7.991
		c5.9076-2.8446-2.6805-16.0077-2.5897-21.2664c0.0821-3.6844,0.9185-7.1915,2.5091-10.5212
		c2.6263-5.5743-0.3799-7.5601,0.4241-12.838c0.8294-5.4449,4.3822-7.3661,2.4642-13.483
		c-1.0751-3.4288-4.3131-7.4586,0.0579-10.3311c9.1446-6.0095,13.7371,1.9532,22.4039-0.0516
		c8.0568-1.8638,5.4632-11.9088,12.4753-14.5162c19.0927-7.0995,38.3218-14.3763,57.678-21.3899
		c21.279-7.7103,39.0201-1.9592,60.3699,1.8424c8.5445,1.5215,20.2048,2.5603,28.517-0.9142
		c3.9064-1.6329,4.9871-5.8827,9.1791-7.3125c4.9203-1.6782,10.3515-2.6158,15.5286-2.8922
		c19.7103-1.052,34.8657,14.0438,55.0746,5.527c7.1693-3.0215,6.3513-9.2393,11.0928-13.9365
		c3.3295-3.2983,3.1292,8.2504,9.5548,6.6812c18.3408-4.48,42.8356,0.115,61.8503,1.9524
		c3.3696,0.3254,8.9126-12.7158,11.6121-14.9214C847.9355,1340.0767,849.7452,1328.2202,843.2517,1319.8599
		C842.5315,1318.9326,848.9155,1327.1519,843.2517,1319.8599z M402.4044,1044.8291c-3.2119-3.0764-8.1027,2.5652-6.0345-5.3319
		c1.6332-6.2358,9.3049-7.0052,13.6042-10.8082C416.5917,1022.8342,417.7049,1044.975,402.4044,1044.8291
		C400.6746,1043.1721,409.4286,1044.896,402.4044,1044.8291z"/>
	<path d="M604.8933,207.2252c-3.0989-8.0932-22.8175,0.1837-28.7408-0.4361c-8.6543-0.9056-28.906-7.906-34.7134,2.3275
		c-5.2452,9.2424-15.1496-4.6632-9.7283-7.2713c11.3677-5.469,22.5735-10.9005,34.4252-15.5174
		c12.174-4.7424,18.0894-7.0403,23.8616-19.4935c8.2396-17.7761-12.8043-16.6319-20.7859-23.2913
		c-8.7071-7.2645-0.3704-14.6668-14.1038-18.2499c-5.1681-1.3484-9.1306-4.8281-11.287-9.6936
		c-3.0267-6.829-2.9183-3.981-7.6927-8.6279c-11.002-10.7082,11.0073-9.8366,12.5504-11.6216
		c3.4151-3.9506,11.0292-9.9498,11.1647-15.705c0.0976-4.1479-12.1898-4.8222-14.8621-5.7965
		c-4.4653-1.6279-31.1562-8.7118-30.0861-12.9107c2.094-8.2153-8.9155-0.6501-10.9468-0.4213
		c-5.9491,0.6701-13.7243-7.2318-19.3358-9.0724c-3.8976-1.2784-8.1348-0.4248-8.7511-5.3795
		c-0.4944-3.9724-0.4019-7.8705-6.2672-5.8104c-4.5197,1.5875-4.0634,9.8653-10.0626,8.2552
		c-8.8023-2.362-17.654-4.6863-26.1019-8.1564c-5.2708-2.165-6.45,0.0724-10.1395,3.2312
		c-5.0359,4.3115-10.6097-2.0302-16.062,3.9249c-4.0749,4.4509-10.1031,7.856-16.2393,7.6008
		c-1.88-0.0782-16.0149-1.0993-16.5635-2.6976c-0.825-2.4036,3.5837-3.4816,1.3741-6.5941
		c-1.9934-2.8078-8.5504-0.0808-10.6993,0.1784c-5.1509,0.6211-21.1112-4.8388-18.0946,5.7801
		c0.4512,1.5881-18.6927,5.7753-21.5696,5.2261c-3.356-0.6407-7.3465-6.3608-10.4677-5.4177
		c-4.5042,1.361-4.1533,7.0412-10.1829,7.2322c-8.1229,0.2573-12.8899-7.0572-21.6464-5.8262
		c-6.4955,0.9132-20.1309,3.3871-25.3815,7.6298c-1.4493,1.1711-3.5588,7.5248-5.1225,6.9163
		c-4.2032-1.6355-10.6562-3.7302-15.0424-1.5952c-12.4198,6.0452-26.6216,12.0222-37.503,20.57
		c-14.7241,11.5665-25.866,21.3506-39.4071,36.8865c-3.7439,4.2956-4.1206,9.3705-0.5821,14.0151
		c3.7755,4.9557-3.0178,9.3456-3.5573,14.0574c-0.8567,7.483-16.0661,5.237-20.9379,6.9493
		c-8.1096,2.8503-5.7364,14.2773-11.0798,19.5173c-3.4515,3.3848-7.5032,0.8572-11.3242,3.0165
		c-8.0051,4.5238,1.0835,7.9349,2.3367,12.2352c0.6304,2.1631-0.0013,7.9727-3.1158,8.425c0.6677,3.736,7.4343,6.4725,3.7068,10.843
		c-3.3123,3.8838-5.8322,8.5185-10.1694,11.4441c-6.8817,4.6413,3.6735,4.8817,3.7333,5.8103
		c0.2068,3.2111-4.7324,5.4371-3.6245,10.0374c0.9701,4.0282,6.4374,1.3078,7.8149,5.0322
		c1.2764,3.4512-4.0932,17.2993-6.231,19.5021c-5.8474,6.0255-0.4438,19.1353,1.1861,25.9788
		c1.5553,6.5307-0.938,12.3143,2.8994,17.2302c6.3479,8.1324,2.3786,2.9421,10.8978,4.4163
		c11.1913,1.9366,8.5219,10.1533,13.375,17.5281c2.1238,3.2274,6.2152,4.6513,7.886,8.2258
		c2.0182,4.3177-3.4238,6.0173-2.3917,9.9339c0.8995,3.4135,7.1051,5.2965,9.3962,7.872
		c4.0255,4.5252,6.2698,10.2409,9.0504,15.5311c5.7524,10.9443,15.6836,3.8497,24.2317,5.1542
		c3.4076,0.5201-2.3596,7.8474-2.2598,7.359c-0.9431,4.6151,4.5725,4.9324,5.9523,8.2982
		c1.6033,3.9109,3.4698,7.7572,6.1421,11.0776c3.2139,3.9932,8.8716,4.8636,11.3651,9.3128
		c5.5599,9.9205,13.9618,17.8253,24.2366,22.7065c4.374,2.0779,16.4899,9.0462,20.9726,9.0356
		c2.2336-0.0052,20.8646,6.1209,21.3693,7.0984c2.4655,4.7748,9.4072,7.8153,9.3161,13.5024
		c-0.1229,7.6679-9.3761,16.9399-16.2067,17.0929c-8.7698,0.1956-17.7963,4.7809-26.4292,7.8252
		c-3.8229,1.3481-13.9972,4.381-14.6256,6.9842c-1.9755,8.1838-7.1521,14.0563-11.017,21.5068
		c-1.9945,3.8448-5.2272,8.4727-5.6536,12.9097c-0.5575,5.8004,3.5244,7.5512,1.001,14.1307
		c-7.2274,18.8445,12.0937,21.4645,21.6624,33.8348c5.6093,7.2516,0.633,20.5149-0.0426,28.7191
		c-1.2698,15.4235-1.4662,31.4147-4.252,46.6525c-4.0216,21.9976-21.2334,39.2523-24.8736,60.9056
		c-0.7678,4.567,0.2223,9.8671-1.0858,14.2744c-1.1803,3.9767-5.7953,5.5807-6.8988,9.7755
		c-1.0244,3.8942,3.6372,6.03,3.5535,9.8124c-0.0817,3.6919-5.3271,9.9596-6.1736,14.6298
		c-1.3976,7.7106-10.622,24.337-0.9236,29.687c7.0294,3.8779-3.374,13.702,6.1706,17.0309
		c10.9359,3.814,12.5443-5.5919,21.6685-8.5631c5.2962-1.7247,10.5922-3.8521,16.2983-3.4457
		c6.8424,0.4872,6.5477-8.4919,8.7854-12.7319c8.5854-16.2676,26.2157,8.4186,33.7906-12.015
		c8.5257-22.9983,10.011-45.9105,17.0194-69.2773c3.3589-11.1989-2.0894-20.0535,3.2835-29.5197
		c3.28-5.7787,13.5178-28.5637,8.6227-34.0517c-7.3124-8.1969-2.8394-21.464-4.9308-30.967
		c-1.1383-5.1723-3.9957-9.7236-6.2065-14.4598c-2.9781-6.38,3.769-9.6019,4.1721-15.6954
		c0.3961-5.9861-2.8805-16.9677,5.9437-18.5737c12.5729-2.2883,24.1046-12.0159,37.146-5.4745
		c2.881,1.4445,5.24-2.0003,8.1866,1.0215c2.6686,2.7367,2.5199,6.9343,4.088,10.2062
		c5.0656,10.5693,19.7188,10.4494,28.7145,15.6753c2.7059,1.572,4.4406-0.7289,6.6506-1.6418
		c1.9483-0.8047,9.3961,4.9865,11.715,5.6883c9.9345,3.0067,24.8368,2.1699,34.7547-0.7335
		c8.0512-2.3569,15.8289-8.9899,9.3041-17.6564c-7.5231-9.9935-5.9783-14.622-19.5126-17.6396
		c3.9785-9.8229-12.1115-20.962-20.1359-24.6552c-9.4413-4.3453-13.7987-12.7769-24.8357-15.2568
		c-11.6863-2.6259-24.5872-2.6973-34.9829-9.3751c-3.998-2.5681-6.9157-7.0377-12.3233-4.8176
		c-3.496,1.4351-0.4483-3.8667-0.5213-4.6616c-0.76-8.2707-11.9761-6.1782-4.5299-14.8596
		c4.5995-5.3625,7.2206-12.8497,14.5275-15.2396c6.5351-2.1374,23.7047,3.4774,29.5196,6.8719
		c18.4968,10.7989,43.8623,7.4438,53.4678-12.0247c3.4311-6.9541,7.1101-17.9216,16.4617-18.1381
		c4.0654-0.0941,7.9764,2.0549,11.3591-1.3915c3.9216-3.9955,2.9268-8.941,9.1598-11.0719c3.4287-1.1721,7.0872-0.808,10.473-1.9667
		c3.8627-1.3219,1.9588-4.553,4.7477-6.268c4.1173-2.5318,0.416,9.6497,5.7917,4.5243c2.2751-2.1691,1.1938-7.4029,2.3353-10.2281
		c1.6381-4.0546,5.5952-4.3379,7.7058-7.7419c4.8716-7.857,12.9026-11.8532,18.1805-19.4923
		c12.2795-17.7673-37.2805-14.5425-41.1634-29.1818c-0.8955-3.3763,2.8865-6.5073,2.3756-10.607
		c-0.5809-4.6621-2.0361-9.0681-2.4868-13.7766c-1.1817-12.3483-7.754-21.2125-18.6211-27.3922
		c-8.2725-4.7042-19.3133-4.0845-26.1743-11.22c-5.9716-6.2105-16.7639-1.5349-23.8074-5.4031
		c-3.9718-2.1812-3.6402-8.8471-9.3368-8.7015c-5.0464,0.1291-10.106-0.511-14.92-2.0525
		c-3.8515-1.2333-26.0653-11.7498-19.4929-16.5007c2.6179-1.8923,21.0162-11.1565,17.5499-16.0994
		c-1.4286-2.0371-8.469-11.414-11.2645-11.1826c-7.9196,0.6555-10.3752,7.4193-19.1674,2.2526
		c-7.7807-4.5723,12.3911-13.9736,13.5557-15.2769c4.1484-4.6428-0.1247-19.3073,5.821-20.3649
		c12.0151-2.1373,24.2557-1.4291,36.3896-1.7826c6.9916-0.2038,16.5157,7.0781,16.934-5.7925
		c0.219-6.7369-23.6662-16.4827-29.2108-19.8726c-3.5157-2.1495-11.368-8.1265-5.6919-12.5588
		c7.3448-5.7355,11.5157-4.037,19.8766-5.1696c8.119-1.0999,5.0644-10.2551,11.3705-13.3665
		c3.5298-1.7416,16.9276-7.3356,20.182-4.2023c4.3142,4.1537,5.6162,11.4745,9.3688,16.2505
		c5.7691,7.3425,15.1644,12.6268,23.434,16.6159c4.2274,2.0392,19.0805,4.4678,18.4651,9.9011
		c-1.1131,9.8223-1.1464,11.1823,3.8464,19.4634c2.6181,4.3424-0.8666,13.0201-2.7361,16.9914
		c-2.7262,5.7918,0.2759,13.5167,3.2618,18.5666c4.4294,7.4912,29.1164,20.5295,31.9791,6.5561
		c3.1306-15.2822,32.1081-7.7355,43.3675-8.7356c8.3272-0.7396,16.6258-2.7397,23.8435-7.0957
		C592.5039,222.7704,606.9479,212.5907,604.8933,207.2252C603.7515,204.2432,606.04,210.2198,604.8933,207.2252z"/>
	<path d="M572.824,721.3514c-5.5101-0.2156-10.5641-0.4401-11.1822-6.907c-0.8749-9.1544-7.4794-13.2274-10.5074-21.5632
		c-7.2067-19.8391-15.6038-36.3593-5.1525-56.6517c8.7078-16.9068-7.5853-27.0383-9.7415-41.58
		c-2.4686-16.6489-11.4725-30.1931-19.162-44.3616c-8.5948-15.8366-11.3128-31.4791-25.8452-44.3566
		c-5.8968-5.2254-13.5363-8.7434-17.8391-15.602c-4.7184-7.5211-16.2997-1.2432-21.4086-9.106
		c-3.5948-5.5327-13.3565-9.0582-14.4345-15.636c-0.5853-3.5712,7.0268-15.2245,9.7212-9.5944
		c3.8243,7.9918,8.2183,2.2943,13.5502,0.4167c10.5986-3.7321,22.2697-4.7835,33.2829-6.81
		c9.3251-1.7159,8.9605-6.742,15.4745-11.4727c4.6401-3.3698,12.5105-2.6232,18.1407-6.6931
		c7.7615-5.6106,14.8471-13.587,19.3698-22.0429c4.1779-7.8114,9.9767-12.5157,14.9036-19.5443
		c4.0174-5.731,10.4403-6.5966,16.8165-7.667c7.8031-1.3099,8.004-10.0549,15.3621-10.9915
		c9.1553-1.1658,11.1286-9.1626,18.3102-12.6523c13.0156-6.3248-2.824-9.2587,2.2328-17.1294
		c8.6992-13.5398,37.4249-7.373,50.3651-16.5911c7.7144-5.4955,14.5028,3.0983,22.4165,3.2961
		c9.3572,0.2339,8.1917-10.3375,14.5529-10.6795c0.8058,0.963,1.8035,1.612,2.993,1.9471c2.6176-0.2695,3.1219-4.1223,6.386-4.6713
		c3.8398-0.6458,7.3337-0.2179,11.0471-1.8977c3.0829-1.3946,5.2745-8.2214,9.54-5.8102
		c5.6685,3.2043,4.8914,11.5777,13.1206,6.2591c3.0345-1.9612,21.2681-0.2628,21.6332-2.1046
		c0.6169-3.1125-10.162-0.8531-3.0449-6.6737c4.9623-4.0584,10.0513,1.2462,13.1295-6.8937
		c5.9648-15.7734,24.7449,1.324,30.3422-8.8604c2.4734-4.4995-2.7786-2.8717-0.7281-8.0066
		c3.1859-7.978,9.3967-6.6181,15.5757-11.1264c5.5803-4.0715,8.9621-13.8876,16.0992-15.2599
		c9.7476-1.8743,9.088-2.2639,12.6068-11.8991c4.9438-13.5372,13.3556-29.7706,22.6826-40.9205
		c5.2786-6.3102,10.1672-4.8919,10.8278-12.3505c0.4462-5.0386,10.0153-12.3646,13.1908-15.557
		c6.5125-6.5471,13.7758-12.4007,21.9774-16.7049c4.5444-2.3849,5.548-10.7228,10.5997-14.1016
		c5.435-3.6351,13.3369-4.8432,13.7017,4.0246c0.3663,8.8993-17.3151,24.2531-15.1078,30.3361
		c0.9615,2.6501,26.7592,0.9668,11.2729,11.2884c20.7237,6.9264-16.4388,27.7257-13.07,31.2317
		c11.3134,11.7695-17.2962,30.4782-25.0817,35.1824c-5.1943,3.1385-10.0791,14.1615-13.0522,19.626
		c-4.9693,9.1332,4.7508,11.3748,10.6381,15.2216c9.9105,6.4755,9.4433,37.4332-6.1165,36.285
		c-23.205-1.7123-38.236-10.8715-60.814,0.1016c-11.2568,5.4709-19.614,13.8721-29.6699,21.033
		c-8.2333,5.863-12.1559,12.297-19.6582,18.3876c-5.6082,4.5528-12.2583,19.3518-20.804,13.5971
		c-5.3802-3.6231-11.7525,11.141-15.0256,12.9792c-7.3338,4.1188-17.1113,2.7161-25.1826,7.379
		c-8.9064,5.1454-18.2551,9.0219-25.4603,16.6541c-15.5849,16.5084-33.5454,27.4983-52.5507,39.8593
		c-8.6806,5.646-19.363,7.899-27.0782,15.0837c-5.0309,4.685-6.4352,12.5354-13.5366,14.2687
		c-20.8893,5.0991-42.9885,27.7892-57.8822,42.3845c-4.7336,4.6388-22.7543,19.104-10.528,24.8364
		c3.2805,1.5381,17.2506,9.5093,17.326,13.2711c0.1823,9.086-0.5735,5.6703,6.2659,12.9305
		c5.3011,5.6273-3.5793,12.1876,2.5966,14.3796c11.0828,3.9334,1.8671,9.5338,8.96,14.9432
		c9.0912,6.9335,9.7149,10.9506,9.8044,22.1532c0.0872,10.9158-18.6621,49.6844,5.3362,51.024
		C594.1989,681.7576,583.3602,723.1873,572.824,721.3514C562.7029,720.9554,576.9443,722.0693,572.824,721.3514z"/>
	<path d="M532.9324,936.6575c1.1164,10.6359,5.108,22.1645,7.9161,32.5667c3.6586,13.5526,1.3613,28.1578,5.2579,41.2438
		c1.7609,5.9134,5.1244,10.645,5.7542,16.9709c0.569,5.7151-3.8611,13.3079-2.2335,18.4764
		c1.3445,4.2694,7.2924,6.437,2.6176,11.7051c-4.0325,4.5446-8.9915-3.7865-10.4666-6.2137
		c-6.9124-11.3741-7.048-25.552-10.2699-38.166c-1.61-6.3035-7.1862-14.3832-6.6235-20.8752
		c0.7214-8.324,0.1622-15.0941-0.8383-23.4808c-1.8049-15.1309-7.947-30.9377-5.2433-46.2498
		C521.2957,908.5206,534.2487,928.3413,532.9324,936.6575C532.9753,937.0657,534.0594,929.5366,532.9324,936.6575z"/>
	<path d="M447.648,258.4548c-8.8555-0.4279-14.1205-11.3193-23.3105-10.9648c-9.368,0.3614-17.7885-10.3831-17.6647-19.1659
		c0.1577-11.1861,21.8554-14.8882,30.2487-10.9676c8.8155,4.1179,18.4409-4.8188,27.351-0.6785
		c5.6422,2.6218,10.6152,12.2544,1.5984,13.3638c-9.7573,1.2002-16.0961,7.2632-7.7044,15.8153
		C468.4172,256.3036,455.6657,256.336,447.648,258.4548C443.8292,258.2702,452.1581,257.2629,447.648,258.4548z"/>
	<path d="M493.7297,352.0871c-15.3583-3.1553,1.0181-11.2195-2.2544-16.577c0.1463,0.2395-16.4053-3.5134-7.3183-9.1619
		c6.2722-3.8987,23.8711-12.4348,31.3792-8.702C525.5918,322.6456,506.1638,355.1874,493.7297,352.0871
		C491.4946,351.6279,498.1894,353.1991,493.7297,352.0871z"/>
	<path d="M497.4821,283.7699c8.3322,0.0887,18.7079-9.3217,23.861-0.9593c8.4185,13.6621-17.3083,21.6338-26.6214,18.6523
		c-7.3609-2.3565-11.1998-3.9149-17.1292,2.2765c-3.9529,4.1276-6.5017,1.0691-2.3093-2.4637
		c5.165-4.3525,5.4879-11.2383,9.9561-15.5153C488.5504,282.5908,493.5306,284.6223,497.4821,283.7699
		C503.0551,283.8293,492.6727,284.8073,497.4821,283.7699z"/>
</g>
</svg>
